<svg id="Layer_1" data-name="Layer 1" xmlns="http://www.w3.org/2000/svg" viewBox="0 0 151 45"><defs><style>.cls-1{fill:#0c3544;}.cls-2{font-size:8.72px;}.cls-2,.cls-3{fill:#fff;font-family:Montserrat-Regular, Montserrat;}.cls-3{font-size:15.53px;}.cls-4{letter-spacing:-0.01em;}.cls-5{letter-spacing:0em;}.cls-6{letter-spacing:-0.01em;}.cls-7{letter-spacing:0em;}.cls-8{fill:#ffc800;}.cls-9{fill:#00f076;}.cls-10{fill:#00d4ff;}.cls-11{fill:#fb3746;}</style></defs><title>play store</title><rect class="cls-1" x="1.68" y="2.25" width="148" height="41.23" rx="3.04"/><text class="cls-2" transform="translate(53.46 18.44)">GET IT ON</text><text class="cls-3" transform="translate(51.52 33.65)">Pl<tspan class="cls-4" x="14.88" y="0">a</tspan><tspan class="cls-5" x="23.9" y="0">y </tspan><tspan class="cls-6" x="37.07" y="0">S</tspan><tspan class="cls-7" x="46.67" y="0">t</tspan><tspan x="53.1" y="0">ore</tspan></text><path class="cls-8" d="M48.62,24.42,43,27.59l-4.56-4.52,4.76-4.7c2.66,1.51,4.74,2.72,5.34,3.12C50.57,22.85,48.62,24.42,48.62,24.42Z"/><path class="cls-9" d="M43.18,18.37l-4.76,4.7L24.69,9.46c.76-.9,2.22-.2,2.22-.2S36.73,14.71,43.18,18.37Z"/><path class="cls-10" d="M38.42,23.07,24.71,36.61A2.61,2.61,0,0,1,24.27,35s-.2-21.61,0-24.25a2.15,2.15,0,0,1,.42-1.27Z"/><path class="cls-11" d="M43,27.59,26.91,36.64c-1.18.57-1.83.38-2.2,0L38.42,23.07Z"/></svg>