<svg id="Layer_1" data-name="Layer 1" xmlns="http://www.w3.org/2000/svg" viewBox="0 0 150.77 45"><defs><style>.cls-1{fill:#0c3544;}.cls-2,.cls-3,.cls-5{fill:#fff;}.cls-3{font-size:8.72px;}.cls-3,.cls-5{font-family:Montserrat-Regular, Montserrat;}.cls-4{letter-spacing:-0.01em;}.cls-5{font-size:15.53px;}.cls-6{letter-spacing:-0.01em;}.cls-7{letter-spacing:0em;}</style></defs><title>apple</title><rect class="cls-1" x="1.47" y="2" width="148" height="41.23" rx="3.04"/><path class="cls-2" d="M33,16.86s-6.63-3.17-9.68,1S21.13,29.7,26,34.6c2.64,2.67,5.75.34,7.23.31s4.12,1.92,6.35.76S44.17,29,44.17,29s-4.46-2.61-3.61-6.44,3-4.28,3-4.28S40.07,13.21,33,16.86Z"/><path class="cls-2" d="M32.84,15.35A6.37,6.37,0,0,1,38.47,9a6.85,6.85,0,0,1-5.17,6.39l-.46.08Z"/><text class="cls-3" transform="translate(53.25 18.18)">D<tspan class="cls-4" x="6.82" y="0">o</tspan><tspan x="12.44" y="0">wnload on the</tspan></text><text class="cls-5" transform="translate(51.3 33.4)">App <tspan class="cls-6" x="36.66" y="0">S</tspan><tspan class="cls-7" x="46.25" y="0">t</tspan><tspan x="52.68" y="0">ore</tspan></text></svg>